<svg id="Capa_1" enable-background="new 0 0 512 512" height="512" viewBox="0 0 512 512" width="512" xmlns="http://www.w3.org/2000/svg"><g><g><path d="m256 37.087c-91.033 0-164.829 73.796-164.829 164.829v15.705h329.658v-15.705c0-91.033-73.796-164.829-164.829-164.829z" fill="#ffee6e"/></g><g><path d="m378.32 487.489c-11.388-57.149-61.825-100.219-122.322-100.219s-110.934 43.069-122.322 100.219c-2.53 12.696 7.29 24.511 20.235 24.511h204.173c12.946 0 22.766-11.815 20.236-24.511z" fill="#7e8596"/></g><g><path d="m285.398 390.761c-9.427-2.278-19.271-3.491-29.398-3.491-60.497 0-110.934 43.069-122.322 100.219-2.53 12.696 7.29 24.511 20.235 24.511h36.14c0-58.763 40.64-108.027 95.345-121.239z" fill="#707789"/></g><g><circle cx="256.002" cy="400.358" fill="#ffcdbe" r="41.754"/></g><g><circle cx="405.509" cy="250.984" fill="#ffdecf" r="37.17"/></g><g><circle cx="106.491" cy="250.984" fill="#ffcdbe" r="37.17"/></g><g><circle cx="256.002" cy="250.981" fill="#ffeee5" r="149.376"/></g><g><path d="m158.134 250.981c0-73.715 53.398-134.952 123.622-147.157-8.367-1.454-16.971-2.219-25.755-2.219-82.498 0-149.376 66.878-149.376 149.376s66.878 149.376 149.376 149.376c8.783 0 17.387-.765 25.755-2.219-70.224-12.205-123.622-73.442-123.622-147.157z" fill="#ffdecf"/></g><g><path d="m304.397 512c-12.506 0-22.644-10.138-22.644-22.644v-80.374h61.811l-16.963 84.815c-2.117 10.584-11.41 18.203-22.204 18.203z" fill="#cdd2e1"/></g><g><path d="m290.851 443.835h16.656v-69.706h-16.656c-19.249 0-34.853 15.604-34.853 34.853 0 19.249 15.604 34.853 34.853 34.853z" fill="#dce1eb"/></g><g><path d="m416.51 486.056-103.018-22.075c-9.5-2.036-16.287-10.431-16.287-20.146v-69.706c0-9.715 6.787-18.111 16.287-20.146l103.018-22.075c12.826-2.748 24.921 7.029 24.921 20.146v113.856c0 13.117-12.095 22.895-24.921 20.146z" fill="#f2f6fc"/></g><g><path d="m338.413 453.106v-88.249c0-8.306 4.969-15.633 12.345-18.86l-37.265 7.985c-9.5 2.036-16.287 10.431-16.287 20.146v69.705c0 9.715 6.787 18.111 16.287 20.146l37.265 7.985c-7.376-3.225-12.345-10.552-12.345-18.858z" fill="#e9edf5"/></g><g><path d="m69.321 107.916c0 31.927 25.882 57.809 57.809 57.809h257.74c31.927 0 57.809-25.882 57.809-57.809 0-26.561-18.099-49.704-43.876-56.105l-195.622-48.579c-68.037-16.895-133.86 34.581-133.86 104.684z" fill="#7e8596"/></g><g><path d="m187.126 91.679c0-40.894 33.151-74.046 74.046-74.046l-57.991-14.401c-68.036-16.896-133.86 34.581-133.86 104.684 0 31.927 25.882 57.809 57.809 57.809h134.042c-40.894 0-74.046-33.151-74.046-74.046z" fill="#707789"/></g><g><g><path d="m283.392 242.575c-1.119 0-2.255-.251-3.326-.782-7.561-3.748-15.656-5.649-24.061-5.649-8.372 0-16.437 1.886-23.973 5.605-3.715 1.832-8.212.308-10.045-3.406s-.308-8.211 3.406-10.045c9.618-4.747 19.917-7.154 30.611-7.154 10.737 0 21.074 2.426 30.724 7.21 3.711 1.84 5.228 6.34 3.388 10.051-1.308 2.64-3.964 4.17-6.724 4.17z" fill="#555a66"/></g><g><path d="m255.999 320.417c-8.668 0-16.912-3.754-22.616-10.3-2.721-3.123-2.396-7.86.727-10.582 3.123-2.721 7.86-2.396 10.582.727 2.854 3.275 6.976 5.154 11.307 5.154s8.452-1.879 11.307-5.154c2.721-3.123 7.459-3.448 10.582-.727s3.448 7.459.727 10.582c-5.705 6.546-13.948 10.3-22.616 10.3z" fill="#555a66"/></g></g><g><circle cx="320.401" cy="253.94" fill="#7e8596" r="41.207"/></g><g><circle cx="191.599" cy="253.94" fill="#7e8596" r="41.207"/></g><g><path d="m191.599 253.94c0-15.25 8.29-28.555 20.604-35.681-6.062-3.508-13.095-5.527-20.604-5.527-22.758 0-41.207 18.449-41.207 41.207s18.449 41.207 41.207 41.207c7.508 0 14.541-2.018 20.604-5.527-12.314-7.125-20.604-20.43-20.604-35.679z" fill="#707789"/></g><g><path d="m320.401 253.94c0-15.25 8.29-28.555 20.604-35.681-6.062-3.508-13.095-5.527-20.604-5.527-22.758 0-41.207 18.449-41.207 41.207s18.449 41.207 41.207 41.207c7.508 0 14.541-2.018 20.604-5.527-12.314-7.125-20.604-20.43-20.604-35.679z" fill="#707789"/></g></g></svg>